<svg preserveAspectRatio="none" width="100%" height="100%" overflow="visible" style="display: block;" viewBox="0 0 36 36" fill="none" xmlns="http://www.w3.org/2000/svg">
<g id="Hand [Vectorized]">
<path id="Vector" d="M17.7059 4.28892C18.6379 4.21527 19.3202 4.63943 19.8438 5.40946C19.9826 5.61365 20.1202 5.97329 20.2893 6.12904C20.4495 6.12127 21.0301 5.82244 21.3904 5.78468C21.9652 5.72442 22.4465 5.79143 22.9226 6.15758C24.1752 7.12086 23.6374 8.4014 23.8264 9.78247C24.1071 9.64596 24.4061 9.51395 24.711 9.42272C26.1199 9.00095 27.3491 10.1414 27.3783 11.5341C27.3886 12.0244 27.382 12.6145 27.3816 13.1524L27.3795 17.1634L27.3782 21.5283C27.3728 22.4 27.4287 23.4469 27.183 24.2715C27.016 24.8316 27.013 25.5644 26.8509 26.0912C26.547 26.9502 26.2295 27.9599 25.725 28.7151C24.7034 30.2443 23.2078 31.7173 21.3459 32.0909C20.0235 32.3563 19.0673 32.4366 17.7432 32.2904C16.0815 32.107 15.2107 31.8457 13.7897 30.9755C12.9891 30.6494 11.8555 29.5196 11.3414 28.8483C10.3894 27.6049 9.79956 26.5292 9.3001 25.0413C8.92702 23.9299 8.45065 22.8128 8.0814 21.6805C7.67574 20.4365 7.00766 19.2078 6.633 17.9452C6.36494 17.0445 6.48756 16.1083 7.32062 15.5565C8.2844 14.9182 9.30516 14.9546 10.0781 15.855C10.3723 16.1976 10.4404 16.4644 10.6611 16.8062C11.191 17.627 11.5707 18.672 12.1115 19.4597C12.307 18.8102 12.23 17.34 12.2296 16.5925L12.2304 10.8617C12.2307 9.8665 12.2155 8.84661 12.2487 7.85299C12.2809 7.54531 12.2931 7.21269 12.4509 6.93468C12.9597 6.04231 14.2098 5.49643 15.1885 5.87897C15.256 5.90534 15.5924 6.14837 15.696 6.2062C16.3242 5.05364 16.4514 4.81373 17.7059 4.28892ZM12.9314 21.5886C12.7671 21.584 12.5655 21.584 12.4048 21.5697C11.9215 20.8475 11.5964 20.2037 11.2461 19.4132C10.9752 18.8018 10.5856 18.2039 10.2595 17.6217C9.99401 17.1457 9.76254 16.6134 9.40943 16.1941C9.12966 15.8618 8.70922 15.9336 8.34037 15.945C7.67331 15.9655 7.07112 16.9696 7.28279 17.5533C7.62606 18.5 8.06151 19.4307 8.34803 20.4026C8.5075 20.9209 8.76192 21.4471 8.93932 21.9633C9.13581 22.5352 9.34154 23.1016 9.57449 23.6597C9.88123 24.4292 10.129 25.2312 10.442 25.9988C10.7735 26.7402 11.3516 27.4711 11.79 28.1563C12.8933 29.7336 14.7246 30.956 16.6187 31.3006C16.7382 31.3223 16.8865 31.4323 17.0056 31.4701C17.625 31.648 18.3105 31.6832 18.9477 31.6883C19.2699 31.6865 19.8474 31.6798 20.1633 31.6029C21.5633 31.2621 23.065 30.7425 24.131 29.7348C24.3496 29.5282 24.5558 29.1072 24.7198 28.8829C25.6897 27.5562 26.1852 26.1294 26.3847 24.5059C26.425 24.1783 26.5535 23.7262 26.5799 23.4122C26.6343 22.7658 26.6425 22.0319 26.6385 21.3781C26.6208 19.1038 26.6168 16.8295 26.6262 14.5551L26.6253 12.6032C26.6248 12.1619 26.6406 11.734 26.5819 11.3006C26.4245 10.1399 25.0338 9.69226 24.2433 10.5241C23.5588 11.2443 23.7895 12.7884 23.7747 13.725C23.749 15.3418 23.8035 16.9585 23.7625 18.5739C23.5547 18.5677 23.3435 18.5581 23.136 18.5654C23.0086 18.0599 23.0605 16.889 23.0605 16.3041L23.0608 11.1254C23.0615 9.93164 23.1402 8.58213 22.9499 7.42975C22.8137 6.60438 21.3299 6.24853 20.7557 6.82749C19.989 7.6005 20.207 9.44881 20.2073 10.4718L20.2088 14.7813C20.209 15.5534 20.2339 16.5035 20.1913 17.2581C20.0343 17.2395 19.5901 17.2 19.4716 17.1433C19.3118 16.7631 19.4509 9.49156 19.4047 8.40716C19.3796 7.81879 19.482 6.63733 19.3011 6.00718C19.2098 5.68927 18.8604 5.3517 18.5609 5.23241C18.2751 5.11864 18.1255 5.11973 17.8256 5.14315C16.8109 5.38829 16.6138 6.02206 16.6016 6.97964C16.5913 7.7875 16.6009 8.59876 16.6024 9.40683L16.6034 14.8256C16.6034 15.163 16.6534 17.0027 16.5295 17.1552C16.3662 17.197 15.8335 17.2474 15.8192 16.9883C15.7775 16.2359 15.7924 15.4718 15.7925 14.7172L15.7941 9.64874C15.7942 9.00366 15.8415 8.27308 15.7333 7.63604C15.5203 6.38223 13.9769 6.18472 13.2599 7.11113C12.8666 7.61927 12.945 8.4844 12.9456 9.10034L12.9481 11.1246L12.9473 18.0227C12.9476 18.9673 13.0011 20.7 12.9314 21.5886Z" fill="var(--fill-0, white)"/>
</g>
</svg>
