<svg preserveAspectRatio="none" width="100%" height="100%" overflow="visible" style="display: block;" viewBox="0 0 20 20" fill="none" xmlns="http://www.w3.org/2000/svg">
<path id="icon" d="M2.22222 17.7778H3.80556L17.1111 4.625L15.4028 2.94444L2.22222 16.1944V17.7778ZM0 20V15.2778L14.6667 0.638889C14.8889 0.435185 15.1343 0.277778 15.4028 0.166667C15.6713 0.0555556 15.9537 0 16.25 0C16.5463 0 16.8333 0.0555556 17.1111 0.166667C17.3889 0.277778 17.6296 0.444445 17.8333 0.666667L19.3611 2.22222C19.5833 2.42593 19.7454 2.66667 19.8472 2.94444C19.9491 3.22222 20 3.5 20 3.77778C20 4.07407 19.9491 4.35648 19.8472 4.625C19.7454 4.89352 19.5833 5.13889 19.3611 5.36111L4.72222 20H0ZM16.2569 3.78472L15.4028 2.94444L17.1111 4.625L16.2569 3.78472Z" fill="var(--fill-0, #4A4A4A)"/>
</svg>
