<?xml version="1.0" encoding="UTF-8"?>
<!DOCTYPE score-partwise PUBLIC "-//Recordare//DTD MusicXML 3.1 Partwise//EN" "http://www.musicxml.org/dtds/partwise.dtd">
<score-partwise version="3.1">
  <part-list>
    <score-part id="P1"><part-name>Piano</part-name></score-part>
  </part-list>
  <part id="P1">
    <measure number="1">
      <attributes>
        <divisions>2</divisions>
        <key><fifths>0</fifths></key>
        <time><beats>4</beats><beat-type>4</beat-type></time>
        <clef number="1"><sign>G</sign><line>2</line></clef>
        <clef number="2"><sign>F</sign><line>4</line></clef>
        <staves>2</staves>
      </attributes>
      <direction placement="above">
        <direction-type>
          <metronome>
            <beat-unit>quarter</beat-unit>
            <per-minute>72</per-minute>
          </metronome>
        </direction-type>
        <sound tempo="72"/>
      </direction>
      <note><pitch><step>C</step><octave>4</octave></pitch><duration>2</duration><voice>1</voice><type>quarter</type><staff>1</staff><notations><technical><fingering>1</fingering></technical></notations></note>
      <note><pitch><step>C</step><octave>4</octave></pitch><duration>2</duration><voice>1</voice><type>quarter</type><staff>1</staff><notations><technical><fingering>1</fingering></technical></notations></note>
      <note><pitch><step>G</step><octave>4</octave></pitch><duration>2</duration><voice>1</voice><type>quarter</type><staff>1</staff><notations><technical><fingering>4</fingering></technical></notations></note>
      <note><pitch><step>G</step><octave>4</octave></pitch><duration>2</duration><voice>1</voice><type>quarter</type><staff>1</staff><notations><technical><fingering>4</fingering></technical></notations></note>
      <backup><duration>8</duration></backup>
      <note><pitch><step>C</step><octave>3</octave></pitch><duration>2</duration><voice>5</voice><type>quarter</type><staff>2</staff><notations><technical><fingering>2</fingering></technical></notations></note>
      <note><pitch><step>C</step><octave>3</octave></pitch><duration>2</duration><voice>5</voice><type>quarter</type><staff>2</staff><notations><technical><fingering>2</fingering></technical></notations></note>
      <note><pitch><step>C</step><octave>3</octave></pitch><duration>2</duration><voice>5</voice><type>quarter</type><staff>2</staff><notations><technical><fingering>2</fingering></technical></notations></note>
      <note><pitch><step>C</step><octave>3</octave></pitch><duration>2</duration><voice>5</voice><type>quarter</type><staff>2</staff><notations><technical><fingering>2</fingering></technical></notations></note>
    </measure>
    <measure number="2">
      <note><pitch><step>A</step><octave>4</octave></pitch><duration>2</duration><voice>1</voice><type>quarter</type><staff>1</staff><notations><technical><fingering>5</fingering></technical></notations></note>
      <note><pitch><step>A</step><octave>4</octave></pitch><duration>2</duration><voice>1</voice><type>quarter</type><staff>1</staff><notations><technical><fingering>5</fingering></technical></notations></note>
      <note><pitch><step>G</step><octave>4</octave></pitch><duration>4</duration><voice>1</voice><type>half</type><staff>1</staff><notations><technical><fingering>4</fingering></technical></notations></note>
      <backup><duration>8</duration></backup>
      <note><pitch><step>F</step><octave>3</octave></pitch><duration>2</duration><voice>5</voice><type>quarter</type><staff>2</staff><notations><technical><fingering>1</fingering></technical></notations></note>
      <note><pitch><step>F</step><octave>3</octave></pitch><duration>2</duration><voice>5</voice><type>quarter</type><staff>2</staff><notations><technical><fingering>1</fingering></technical></notations></note>
      <note><pitch><step>E</step><octave>3</octave></pitch><duration>4</duration><voice>5</voice><type>half</type><staff>2</staff><notations><technical><fingering>2</fingering></technical></notations></note>
    </measure>
    <measure number="3">
      <note><pitch><step>F</step><octave>4</octave></pitch><duration>2</duration><voice>1</voice><type>quarter</type><staff>1</staff><notations><technical><fingering>4</fingering></technical></notations></note>
      <note><pitch><step>F</step><octave>4</octave></pitch><duration>2</duration><voice>1</voice><type>quarter</type><staff>1</staff><notations><technical><fingering>4</fingering></technical></notations></note>
      <note><pitch><step>E</step><octave>4</octave></pitch><duration>2</duration><voice>1</voice><type>quarter</type><staff>1</staff><notations><technical><fingering>3</fingering></technical></notations></note>
      <note><pitch><step>E</step><octave>4</octave></pitch><duration>2</duration><voice>1</voice><type>quarter</type><staff>1</staff><notations><technical><fingering>3</fingering></technical></notations></note>
      <backup><duration>8</duration></backup>
      <note><pitch><step>D</step><octave>3</octave></pitch><duration>2</duration><voice>5</voice><type>quarter</type><staff>2</staff><notations><technical><fingering>2</fingering></technical></notations></note>
      <note><pitch><step>D</step><octave>3</octave></pitch><duration>2</duration><voice>5</voice><type>quarter</type><staff>2</staff><notations><technical><fingering>2</fingering></technical></notations></note>
      <note><pitch><step>C</step><octave>3</octave></pitch><duration>2</duration><voice>5</voice><type>quarter</type><staff>2</staff><notations><technical><fingering>3</fingering></technical></notations></note>
      <note><pitch><step>C</step><octave>3</octave></pitch><duration>2</duration><voice>5</voice><type>quarter</type><staff>2</staff><notations><technical><fingering>3</fingering></technical></notations></note>
    </measure>
    <measure number="4">
      <note><pitch><step>D</step><octave>4</octave></pitch><duration>2</duration><voice>1</voice><type>quarter</type><staff>1</staff><notations><technical><fingering>2</fingering></technical></notations></note>
      <note><pitch><step>D</step><octave>4</octave></pitch><duration>2</duration><voice>1</voice><type>quarter</type><staff>1</staff><notations><technical><fingering>2</fingering></technical></notations></note>
      <note><pitch><step>C</step><octave>4</octave></pitch><duration>4</duration><voice>1</voice><type>half</type><staff>1</staff><notations><technical><fingering>1</fingering></technical></notations></note>
      <backup><duration>8</duration></backup>
      <note><pitch><step>G</step><octave>2</octave></pitch><duration>2</duration><voice>5</voice><type>quarter</type><staff>2</staff><notations><technical><fingering>4</fingering></technical></notations></note>
      <note><pitch><step>G</step><octave>2</octave></pitch><duration>2</duration><voice>5</voice><type>quarter</type><staff>2</staff><notations><technical><fingering>4</fingering></technical></notations></note>
      <note><pitch><step>C</step><octave>3</octave></pitch><duration>4</duration><voice>5</voice><type>half</type><staff>2</staff><notations><technical><fingering>3</fingering></technical></notations></note>
    </measure>
    <measure number="5">
      <note><pitch><step>G</step><octave>4</octave></pitch><duration>2</duration><voice>1</voice><type>quarter</type><staff>1</staff><notations><technical><fingering>5</fingering></technical></notations></note>
      <note><pitch><step>G</step><octave>4</octave></pitch><duration>2</duration><voice>1</voice><type>quarter</type><staff>1</staff><notations><technical><fingering>5</fingering></technical></notations></note>
      <note><pitch><step>F</step><octave>4</octave></pitch><duration>2</duration><voice>1</voice><type>quarter</type><staff>1</staff><notations><technical><fingering>4</fingering></technical></notations></note>
      <note><pitch><step>F</step><octave>4</octave></pitch><duration>2</duration><voice>1</voice><type>quarter</type><staff>1</staff><notations><technical><fingering>4</fingering></technical></notations></note>
      <backup><duration>8</duration></backup>
      <note><pitch><step>E</step><octave>3</octave></pitch><duration>2</duration><voice>5</voice><type>quarter</type><staff>2</staff><notations><technical><fingering>1</fingering></technical></notations></note>
      <note><pitch><step>E</step><octave>3</octave></pitch><duration>2</duration><voice>5</voice><type>quarter</type><staff>2</staff><notations><technical><fingering>1</fingering></technical></notations></note>
      <note><pitch><step>D</step><octave>3</octave></pitch><duration>2</duration><voice>5</voice><type>quarter</type><staff>2</staff><notations><technical><fingering>2</fingering></technical></notations></note>
      <note><pitch><step>D</step><octave>3</octave></pitch><duration>2</duration><voice>5</voice><type>quarter</type><staff>2</staff><notations><technical><fingering>2</fingering></technical></notations></note>
    </measure>
    <measure number="6">
      <note><pitch><step>E</step><octave>4</octave></pitch><duration>2</duration><voice>1</voice><type>quarter</type><staff>1</staff><notations><technical><fingering>3</fingering></technical></notations></note>
      <note><pitch><step>E</step><octave>4</octave></pitch><duration>2</duration><voice>1</voice><type>quarter</type><staff>1</staff><notations><technical><fingering>3</fingering></technical></notations></note>
      <note><pitch><step>D</step><octave>4</octave></pitch><duration>4</duration><voice>1</voice><type>half</type><staff>1</staff><notations><technical><fingering>2</fingering></technical></notations></note>
      <backup><duration>8</duration></backup>
      <note><pitch><step>C</step><octave>3</octave></pitch><duration>2</duration><voice>5</voice><type>quarter</type><staff>2</staff><notations><technical><fingering>1</fingering></technical></notations></note>
      <note><pitch><step>C</step><octave>3</octave></pitch><duration>2</duration><voice>5</voice><type>quarter</type><staff>2</staff><notations><technical><fingering>1</fingering></technical></notations></note>
      <note><pitch><step>B</step><octave>2</octave></pitch><duration>4</duration><voice>5</voice><type>half</type><staff>2</staff><notations><technical><fingering>4</fingering></technical></notations></note>
    </measure>
    <measure number="7">
      <note><pitch><step>G</step><octave>4</octave></pitch><duration>2</duration><voice>1</voice><type>quarter</type><staff>1</staff><notations><technical><fingering>5</fingering></technical></notations></note>
      <note><pitch><step>G</step><octave>4</octave></pitch><duration>2</duration><voice>1</voice><type>quarter</type><staff>1</staff><notations><technical><fingering>5</fingering></technical></notations></note>
      <note><pitch><step>F</step><octave>4</octave></pitch><duration>2</duration><voice>1</voice><type>quarter</type><staff>1</staff><notations><technical><fingering>4</fingering></technical></notations></note>
      <note><pitch><step>F</step><octave>4</octave></pitch><duration>2</duration><voice>1</voice><type>quarter</type><staff>1</staff><notations><technical><fingering>4</fingering></technical></notations></note>
      <backup><duration>8</duration></backup>
      <note><pitch><step>E</step><octave>3</octave></pitch><duration>2</duration><voice>5</voice><type>quarter</type><staff>2</staff><notations><technical><fingering>1</fingering></technical></notations></note>
      <note><pitch><step>E</step><octave>3</octave></pitch><duration>2</duration><voice>5</voice><type>quarter</type><staff>2</staff><notations><technical><fingering>1</fingering></technical></notations></note>
      <note><pitch><step>D</step><octave>3</octave></pitch><duration>2</duration><voice>5</voice><type>quarter</type><staff>2</staff><notations><technical><fingering>2</fingering></technical></notations></note>
      <note><pitch><step>D</step><octave>3</octave></pitch><duration>2</duration><voice>5</voice><type>quarter</type><staff>2</staff><notations><technical><fingering>2</fingering></technical></notations></note>
    </measure>
    <measure number="8">
      <note><pitch><step>E</step><octave>4</octave></pitch><duration>2</duration><voice>1</voice><type>quarter</type><staff>1</staff><notations><technical><fingering>3</fingering></technical></notations></note>
      <note><pitch><step>E</step><octave>4</octave></pitch><duration>2</duration><voice>1</voice><type>quarter</type><staff>1</staff><notations><technical><fingering>3</fingering></technical></notations></note>
      <note><pitch><step>D</step><octave>4</octave></pitch><duration>4</duration><voice>1</voice><type>half</type><staff>1</staff><notations><technical><fingering>2</fingering></technical></notations></note>
      <backup><duration>8</duration></backup>
      <note><pitch><step>C</step><octave>3</octave></pitch><duration>2</duration><voice>5</voice><type>quarter</type><staff>2</staff><notations><technical><fingering>1</fingering></technical></notations></note>
      <note><pitch><step>C</step><octave>3</octave></pitch><duration>2</duration><voice>5</voice><type>quarter</type><staff>2</staff><notations><technical><fingering>1</fingering></technical></notations></note>
      <note><pitch><step>B</step><octave>2</octave></pitch><duration>4</duration><voice>5</voice><type>half</type><staff>2</staff><notations><technical><fingering>4</fingering></technical></notations></note>
    </measure>
    <measure number="9">
      <note><pitch><step>C</step><octave>4</octave></pitch><duration>2</duration><voice>1</voice><type>quarter</type><staff>1</staff><notations><technical><fingering>1</fingering></technical></notations></note>
      <note><pitch><step>C</step><octave>4</octave></pitch><duration>2</duration><voice>1</voice><type>quarter</type><staff>1</staff><notations><technical><fingering>1</fingering></technical></notations></note>
      <note><pitch><step>G</step><octave>4</octave></pitch><duration>2</duration><voice>1</voice><type>quarter</type><staff>1</staff><notations><technical><fingering>4</fingering></technical></notations></note>
      <note><pitch><step>G</step><octave>4</octave></pitch><duration>2</duration><voice>1</voice><type>quarter</type><staff>1</staff><notations><technical><fingering>4</fingering></technical></notations></note>
      <backup><duration>8</duration></backup>
      <note><pitch><step>C</step><octave>3</octave></pitch><duration>2</duration><voice>5</voice><type>quarter</type><staff>2</staff><notations><technical><fingering>1</fingering></technical></notations></note>
      <note><pitch><step>C</step><octave>3</octave></pitch><duration>2</duration><voice>5</voice><type>quarter</type><staff>2</staff><notations><technical><fingering>1</fingering></technical></notations></note>
      <note><pitch><step>C</step><octave>3</octave></pitch><duration>2</duration><voice>5</voice><type>quarter</type><staff>2</staff><notations><technical><fingering>1</fingering></technical></notations></note>
      <note><pitch><step>C</step><octave>3</octave></pitch><duration>2</duration><voice>5</voice><type>quarter</type><staff>2</staff><notations><technical><fingering>1</fingering></technical></notations></note>
    </measure>
    <measure number="10">
      <note><pitch><step>A</step><octave>4</octave></pitch><duration>2</duration><voice>1</voice><type>quarter</type><staff>1</staff><notations><technical><fingering>5</fingering></technical></notations></note>
      <note><pitch><step>A</step><octave>4</octave></pitch><duration>2</duration><voice>1</voice><type>quarter</type><staff>1</staff><notations><technical><fingering>5</fingering></technical></notations></note>
      <note><pitch><step>G</step><octave>4</octave></pitch><duration>4</duration><voice>1</voice><type>half</type><staff>1</staff><notations><technical><fingering>4</fingering></technical></notations></note>
      <backup><duration>8</duration></backup>
      <note><pitch><step>F</step><octave>3</octave></pitch><duration>1</duration><voice>5</voice><type>eighth</type><staff>2</staff><beam number="1">begin</beam><notations><technical><fingering>4</fingering></technical></notations></note>
      <note><pitch><step>G</step><octave>3</octave></pitch><duration>1</duration><voice>5</voice><type>eighth</type><staff>2</staff><beam number="1">continue</beam><notations><technical><fingering>3</fingering></technical></notations></note>
      <note><pitch><step>A</step><octave>3</octave></pitch><duration>1</duration><voice>5</voice><type>eighth</type><staff>2</staff><beam number="1">continue</beam><notations><technical><fingering>2</fingering></technical></notations></note>
      <note><pitch><step>B</step><octave>3</octave></pitch><duration>1</duration><voice>5</voice><type>eighth</type><staff>2</staff><beam number="1">end</beam><notations><technical><fingering>1</fingering></technical></notations></note>
      <note><pitch><step>C</step><octave>4</octave></pitch><duration>4</duration><voice>5</voice><type>half</type><staff>2</staff><notations><technical><fingering>2</fingering></technical></notations></note>
    </measure>
    <measure number="11">
      <note><pitch><step>F</step><octave>4</octave></pitch><duration>2</duration><voice>1</voice><type>quarter</type><staff>1</staff><notations><technical><fingering>3</fingering></technical></notations></note>
      <note><pitch><step>F</step><octave>4</octave></pitch><duration>2</duration><voice>1</voice><type>quarter</type><staff>1</staff><notations><technical><fingering>3</fingering></technical></notations></note>
      <note><pitch><step>E</step><octave>4</octave></pitch><duration>2</duration><voice>1</voice><type>quarter</type><staff>1</staff><notations><technical><fingering>2</fingering></technical></notations></note>
      <note><pitch><step>E</step><octave>4</octave></pitch><duration>2</duration><voice>1</voice><type>quarter</type><staff>1</staff><notations><technical><fingering>2</fingering></technical></notations></note>
      <backup><duration>8</duration></backup>
      <note><pitch><step>F</step><octave>3</octave></pitch><duration>2</duration><voice>5</voice><type>quarter</type><staff>2</staff><notations><technical><fingering>1</fingering></technical></notations></note>
      <note><pitch><step>E</step><octave>3</octave></pitch><duration>2</duration><voice>5</voice><type>quarter</type><staff>2</staff><notations><technical><fingering>2</fingering></technical></notations></note>
      <note><pitch><step>D</step><octave>3</octave></pitch><duration>2</duration><voice>5</voice><type>quarter</type><staff>2</staff><notations><technical><fingering>3</fingering></technical></notations></note>
      <note><pitch><step>C</step><octave>3</octave></pitch><duration>2</duration><voice>5</voice><type>quarter</type><staff>2</staff><notations><technical><fingering>5</fingering></technical></notations></note>
    </measure>
    <measure number="12">
      <note><pitch><step>D</step><octave>4</octave></pitch><duration>2</duration><voice>1</voice><type>quarter</type><staff>1</staff><notations><technical><fingering>2</fingering></technical></notations></note>
      <note><pitch><step>D</step><octave>4</octave></pitch><duration>2</duration><voice>1</voice><type>quarter</type><staff>1</staff><notations><technical><fingering>2</fingering></technical></notations></note>
      <note><pitch><step>C</step><octave>4</octave></pitch><duration>4</duration><voice>1</voice><type>half</type><staff>1</staff><notations><technical><fingering>1</fingering></technical></notations></note>
      <backup><duration>8</duration></backup>
      <note><pitch><step>D</step><octave>3</octave></pitch><duration>2</duration><voice>5</voice><type>quarter</type><staff>2</staff><notations><technical><fingering>2</fingering></technical></notations></note>
      <note><pitch><step>G</step><octave>2</octave></pitch><duration>2</duration><voice>5</voice><type>quarter</type><staff>2</staff><notations><technical><fingering>5</fingering></technical></notations></note>
      <note><pitch><step>C</step><octave>3</octave></pitch><duration>4</duration><voice>5</voice><type>half</type><staff>2</staff><notations><technical><fingering>1</fingering></technical></notations></note>
    </measure>
  </part>
</score-partwise>
